<svg width="105" height="105" viewBox="0 0 105 105" fill="none" xmlns="http://www.w3.org/2000/svg">
<g clip-path="url(#clip0_10_243)">
<path d="M75.8963 10.6966C77.8051 14.3062 81.2824 16.8386 85.3078 17.5378C85.5156 17.5756 85.7046 17.6134 85.8936 17.6512C85.9503 17.6701 85.9881 17.6701 86.0448 17.689C86.1204 17.7079 86.196 17.7268 86.2716 17.7457L87.122 17.9914C92.527 19.7489 96.2311 24.7948 96.2689 30.4644C96.2689 30.729 96.2689 31.0124 96.25 31.277C96.2311 31.5038 96.2122 31.7495 96.1933 31.9763C96.1744 32.1275 96.1555 32.2975 96.1366 32.4487C95.5696 36.493 96.8925 40.5751 99.7273 43.5232C99.8785 43.6933 100.03 43.8445 100.181 44.0146C100.238 44.0902 100.294 44.1469 100.351 44.2225L100.71 44.6572C100.748 44.7139 100.805 44.7894 100.842 44.8461L100.994 45.054C102.619 47.3407 103.45 50.0432 103.45 52.7268C103.45 55.4293 102.638 58.1129 100.994 60.3996C100.937 60.4752 100.899 60.5319 100.842 60.6075C100.786 60.6642 100.748 60.7398 100.691 60.7965C100.634 60.8532 100.597 60.9288 100.54 60.9855C100.445 61.0988 100.351 61.2122 100.256 61.3445C100.219 61.3823 100.181 61.439 100.143 61.4957C100.011 61.6469 99.8596 61.7981 99.7273 61.9493C96.8925 64.8785 95.5508 68.9795 96.1366 73.0238C96.1555 73.175 96.1744 73.3451 96.1933 73.4962C96.2122 73.723 96.2311 73.9687 96.25 74.1955C96.2689 74.4223 96.2689 74.668 96.2689 74.8947C96.2689 74.9325 96.2689 74.9703 96.2689 75.0081C96.2122 80.6399 92.5837 85.648 87.2354 87.4244C86.9141 87.5378 86.5929 87.6323 86.2527 87.7079C86.1771 87.7268 86.1015 87.7457 86.0259 87.7646C85.9692 87.7835 85.9314 87.7835 85.8747 87.8024C85.6857 87.8402 85.4779 87.878 85.2889 87.9158C81.2635 88.615 77.7862 91.1474 75.8774 94.7571L75.6317 95.2106C75.5561 95.3429 75.4617 95.4752 75.3861 95.6264L75.3294 95.7209C75.2538 95.8343 75.1782 95.9477 75.1026 96.061L75.0837 96.0988C75.0081 96.2122 74.9136 96.3445 74.838 96.4579C74.838 96.4579 74.838 96.4768 74.8191 96.4768C72.2867 99.8974 68.2802 101.825 64.1604 101.825C62.8375 101.825 61.5146 101.636 60.2106 101.22C60.1539 101.201 60.0783 101.183 60.0216 101.164C59.9838 101.145 59.9649 101.145 59.9271 101.126C59.8704 101.107 59.8137 101.088 59.757 101.069C59.6625 101.031 59.5869 101.012 59.4924 100.975C59.4357 100.956 59.379 100.937 59.3034 100.899C59.0767 100.805 58.8688 100.71 58.642 100.616C58.5475 100.578 58.453 100.521 58.3585 100.483C54.6922 98.6879 50.3834 98.6879 46.717 100.483C46.6226 100.521 46.5281 100.578 46.4147 100.616L45.7532 100.899C45.6965 100.918 45.6398 100.937 45.5642 100.975L45.2997 101.069C45.243 101.088 45.1863 101.107 45.1296 101.126L45.0351 101.164C44.9784 101.183 44.9028 101.201 44.8461 101.22C43.5421 101.636 42.2192 101.825 40.8963 101.825C36.7764 101.825 32.7889 99.8974 30.2376 96.4768C30.2376 96.4768 30.2376 96.4579 30.2187 96.4579C30.1242 96.3445 30.0486 96.2311 29.973 96.0988C29.973 96.0799 29.9541 96.0799 29.9541 96.061C29.8785 95.9477 29.8029 95.8343 29.7273 95.7209C29.7084 95.6831 29.6895 95.6642 29.6706 95.6264C29.595 95.4941 29.5005 95.3618 29.4249 95.2106C29.3304 95.0594 29.2548 94.9082 29.1792 94.7571C27.2705 91.1474 23.7932 88.615 19.7678 87.9158C19.5599 87.878 19.3709 87.8402 19.1819 87.8024C19.1253 87.7835 19.0875 87.7835 19.0308 87.7646C18.9552 87.7457 18.8796 87.7268 18.804 87.7079C17.8591 87.4244 17.8402 87.4244 17.8213 87.4244C12.4919 85.6291 8.84448 80.621 8.78778 75.0081C8.78778 74.7436 8.78778 74.4601 8.80668 74.1955C8.82558 73.9687 8.84448 73.723 8.86337 73.4962C8.88227 73.3451 8.90117 73.175 8.92007 73.0238C9.48702 68.9795 8.16413 64.8974 5.32936 61.9493C5.17817 61.7981 5.04588 61.6469 4.91359 61.4957L4.8002 61.3445C4.70571 61.2311 4.61121 61.1177 4.51672 60.9855C4.46003 60.9288 4.42223 60.8532 4.36553 60.7965C4.30884 60.7209 4.27104 60.6642 4.21435 60.6075C4.15765 60.5319 4.11985 60.4752 4.06316 60.3996C2.43789 58.1129 1.60635 55.4104 1.60635 52.7268C1.60635 50.0432 2.41899 47.3407 4.06316 45.054C4.11985 44.9784 4.15765 44.9028 4.21435 44.8461C4.25214 44.7894 4.30884 44.7327 4.34663 44.6572C4.46003 44.506 4.57342 44.3548 4.70571 44.2225C4.7624 44.1469 4.8191 44.0902 4.87579 44.0146C5.02698 43.8445 5.17817 43.6744 5.32936 43.5232C8.16413 40.594 9.50592 36.493 8.92007 32.4487C8.90117 32.2975 8.88227 32.1275 8.86337 31.9763C8.84448 31.7495 8.82558 31.5038 8.80668 31.277C8.78778 31.0502 8.78778 30.8046 8.78778 30.5778C8.78778 30.54 8.78778 30.5022 8.78778 30.4644C8.84448 24.7948 12.5297 19.7489 17.9346 17.9914C18.2181 17.8969 18.5016 17.8213 18.7851 17.7457C18.8607 17.7268 18.9363 17.7079 19.0119 17.689C19.0686 17.6701 19.1064 17.6701 19.1631 17.6512C19.352 17.6134 19.5599 17.5756 19.7489 17.5378C23.7743 16.8386 27.2516 14.3062 29.1604 10.6966L29.406 10.243C29.5005 10.0918 29.5761 9.95953 29.6706 9.82724C29.7651 9.67605 29.8596 9.54376 29.9541 9.41147C30.0486 9.27918 30.1242 9.14689 30.2187 9.0335C30.2187 9.0146 30.2376 9.0146 30.2376 9.0146C32.77 5.59398 36.7764 3.66633 40.8963 3.66633C42.2381 3.66633 43.5988 3.87422 44.9217 4.28998C45.1485 4.36558 45.3564 4.44117 45.5831 4.51676C45.6398 4.53566 45.6965 4.55456 45.7721 4.59236C45.9989 4.68685 46.2068 4.78134 46.4336 4.87583C46.5281 4.91363 46.6226 4.97033 46.7359 5.00812C50.4023 6.80348 54.7111 6.80348 58.3774 5.00812C58.4719 4.97033 58.5664 4.91363 58.6609 4.87583L59.3223 4.59236C59.379 4.57346 59.4357 4.53566 59.5113 4.51676L60.1728 4.28998C65.5588 2.55132 71.493 4.46007 74.8569 9.0146C74.8569 9.0335 74.8758 9.0335 74.8758 9.0335C74.9703 9.14689 75.0648 9.27918 75.1404 9.41147C75.2349 9.54376 75.3294 9.67605 75.4239 9.82724C75.5183 9.95953 75.5939 10.1107 75.6884 10.243C75.7262 10.4131 75.8018 10.5454 75.8963 10.6966ZM34.1873 14.7219C27.8753 17.7835 22.4514 22.3569 18.3693 27.9698C14.1738 33.7149 11.4147 40.5751 10.5831 48.0211C10.4131 49.5708 10.3186 51.1393 10.3186 52.7268C10.3186 53.4639 10.3375 54.182 10.3753 54.919C10.5264 58.0562 11.0367 61.0988 11.8493 64.0092C12.7943 67.4487 14.1738 70.7182 15.9125 73.7419C16.8385 75.3672 17.878 76.9169 18.993 78.3721C22.2435 82.6242 26.3067 86.2527 30.9368 89.0119C33.696 90.6561 36.6442 91.9979 39.7624 92.9806C43.7878 94.2657 48.0777 94.946 52.5378 94.946C58.3396 94.946 63.858 93.7743 68.885 91.6577C73.0048 89.9379 76.7845 87.5756 80.1107 84.7031C87.0275 78.7311 91.9789 70.567 93.8877 61.2689C94.4546 58.5098 94.757 55.6561 94.757 52.7268C94.757 51.1582 94.6625 49.6086 94.5113 48.0778C93.6609 40.3861 90.7694 33.3181 86.3661 27.4406C78.6555 17.1599 66.3904 10.4887 52.5378 10.4887C47.8321 10.4887 43.2964 11.2635 39.0821 12.6809C37.4001 13.2857 35.7559 13.9471 34.1873 14.7219Z" stroke="black" stroke-width="1.51188" stroke-miterlimit="10" stroke-linecap="round" stroke-linejoin="round"/>
<path d="M72.5702 50.9881C72.5702 50.9125 72.5891 50.8558 72.5891 50.7802C72.5891 50.8369 72.5702 50.9125 72.5702 50.9881Z" stroke="black" stroke-width="1.51188" stroke-miterlimit="10" stroke-linecap="round" stroke-linejoin="round"/>
<path d="M46.4147 4.87579C46.5092 4.91359 46.6037 4.97029 46.7171 5.00808" stroke="black" stroke-width="1.51188" stroke-miterlimit="10" stroke-linecap="round" stroke-linejoin="round"/>
<path d="M45.5831 4.51675C45.6398 4.53565 45.6965 4.55455 45.7721 4.59235" stroke="black" stroke-width="1.51188" stroke-miterlimit="10" stroke-linecap="round" stroke-linejoin="round"/>
<path d="M29.4438 10.2619C29.5194 10.1107 29.6139 9.97839 29.7084 9.8461C29.8029 9.69492 29.8974 9.56263 29.9919 9.43034C30.0864 9.29805 30.162 9.16576 30.2565 9.05237" stroke="black" stroke-width="1.51188" stroke-miterlimit="10" stroke-linecap="round" stroke-linejoin="round"/>
<path d="M19.182 17.6701C19.371 17.6323 19.5788 17.5945 19.7678 17.5567" stroke="black" stroke-width="1.51188" stroke-miterlimit="10" stroke-linecap="round" stroke-linejoin="round"/>
<path d="M18.804 17.7457C18.8796 17.7268 18.9552 17.7079 19.0308 17.689" stroke="black" stroke-width="1.51188" stroke-miterlimit="10" stroke-linecap="round" stroke-linejoin="round"/>
<path d="M8.88229 31.9762C8.86339 31.7494 8.84449 31.5038 8.82559 31.277" stroke="black" stroke-width="1.51188" stroke-miterlimit="10" stroke-linecap="round" stroke-linejoin="round"/>
<path d="M8.93899 32.4487C8.92009 32.2975 8.90119 32.1274 8.88229 31.9763" stroke="black" stroke-width="1.51188" stroke-miterlimit="10" stroke-linecap="round" stroke-linejoin="round"/>
<path d="M4.70572 44.2225C4.76241 44.1469 4.81911 44.0902 4.87581 44.0146C5.02699 43.8445 5.17818 43.6744 5.32937 43.5232" stroke="black" stroke-width="1.51188" stroke-miterlimit="10" stroke-linecap="round" stroke-linejoin="round"/>
<path d="M4.21436 44.8461C4.25215 44.7894 4.30885 44.7327 4.34665 44.6571" stroke="black" stroke-width="1.51188" stroke-miterlimit="10" stroke-linecap="round" stroke-linejoin="round"/>
<path d="M5.32937 61.9681C5.17818 61.817 5.04589 61.6658 4.9136 61.5146" stroke="black" stroke-width="1.51188" stroke-miterlimit="10" stroke-linecap="round" stroke-linejoin="round"/>
<path d="M8.88229 73.4962C8.90119 73.345 8.92009 73.175 8.93899 73.0238" stroke="black" stroke-width="1.51188" stroke-miterlimit="10" stroke-linecap="round" stroke-linejoin="round"/>
<path d="M8.82559 74.2144C8.84449 73.9876 8.86339 73.7419 8.88229 73.5151" stroke="black" stroke-width="1.51188" stroke-miterlimit="10" stroke-linecap="round" stroke-linejoin="round"/>
<path d="M19.0308 87.7835C18.9552 87.7646 18.8796 87.7457 18.804 87.7268" stroke="black" stroke-width="1.51188" stroke-miterlimit="10" stroke-linecap="round" stroke-linejoin="round"/>
<path d="M19.7678 87.9536C19.5599 87.9158 19.371 87.878 19.182 87.8402" stroke="black" stroke-width="1.51188" stroke-miterlimit="10" stroke-linecap="round" stroke-linejoin="round"/>
<path d="M29.6895 95.6453C29.595 95.513 29.5194 95.3807 29.4438 95.2295" stroke="black" stroke-width="1.51188" stroke-miterlimit="10" stroke-linecap="round" stroke-linejoin="round"/>
<path d="M29.9541 96.061C29.8785 95.9476 29.8029 95.8342 29.7273 95.7209" stroke="black" stroke-width="1.51188" stroke-miterlimit="10" stroke-linecap="round" stroke-linejoin="round"/>
<path d="M30.2376 96.4579C30.1431 96.3445 30.0675 96.2311 29.9919 96.0988" stroke="black" stroke-width="1.51188" stroke-miterlimit="10" stroke-linecap="round" stroke-linejoin="round"/>
<path d="M45.3375 101.069C45.2808 101.088 45.2241 101.107 45.1674 101.126" stroke="black" stroke-width="1.51188" stroke-miterlimit="10" stroke-linecap="round" stroke-linejoin="round"/>
<path d="M45.7721 100.899C45.7154 100.918 45.6587 100.937 45.5831 100.975" stroke="black" stroke-width="1.51188" stroke-miterlimit="10" stroke-linecap="round" stroke-linejoin="round"/>
<path d="M46.7171 100.483C46.6226 100.521 46.5281 100.578 46.4147 100.616" stroke="black" stroke-width="1.51188" stroke-miterlimit="10" stroke-linecap="round" stroke-linejoin="round"/>
<path d="M58.642 100.616C58.5475 100.578 58.453 100.521 58.3585 100.483" stroke="black" stroke-width="1.51188" stroke-miterlimit="10" stroke-linecap="round" stroke-linejoin="round"/>
<path d="M59.4925 100.975C59.4358 100.956 59.3791 100.937 59.3035 100.899" stroke="black" stroke-width="1.51188" stroke-miterlimit="10" stroke-linecap="round" stroke-linejoin="round"/>
<path d="M59.9271 101.126C59.8704 101.107 59.8137 101.088 59.757 101.069" stroke="black" stroke-width="1.51188" stroke-miterlimit="10" stroke-linecap="round" stroke-linejoin="round"/>
<path d="M75.0837 96.0988C75.0081 96.2122 74.9136 96.3445 74.838 96.4579" stroke="black" stroke-width="1.51188" stroke-miterlimit="10" stroke-linecap="round" stroke-linejoin="round"/>
<path d="M75.3294 95.7209C75.2538 95.8342 75.1782 95.9476 75.1026 96.061" stroke="black" stroke-width="1.51188" stroke-miterlimit="10" stroke-linecap="round" stroke-linejoin="round"/>
<path d="M75.6318 95.2295C75.5562 95.3618 75.4806 95.513 75.3861 95.6453" stroke="black" stroke-width="1.51188" stroke-miterlimit="10" stroke-linecap="round" stroke-linejoin="round"/>
<path d="M85.8936 87.8213C85.7046 87.8591 85.4968 87.8969 85.3078 87.9347" stroke="black" stroke-width="1.51188" stroke-miterlimit="10" stroke-linecap="round" stroke-linejoin="round"/>
<path d="M86.2716 87.7457C86.196 87.7646 86.1204 87.7835 86.0448 87.8024" stroke="black" stroke-width="1.51188" stroke-miterlimit="10" stroke-linecap="round" stroke-linejoin="round"/>
<path d="M96.1933 73.4962C96.2122 73.723 96.2311 73.9687 96.25 74.1955" stroke="black" stroke-width="1.51188" stroke-miterlimit="10" stroke-linecap="round" stroke-linejoin="round"/>
<path d="M96.1366 73.0238C96.1555 73.175 96.1744 73.345 96.1933 73.4962" stroke="black" stroke-width="1.51188" stroke-miterlimit="10" stroke-linecap="round" stroke-linejoin="round"/>
<path d="M100.162 61.5146C100.03 61.6658 99.8785 61.817 99.7462 61.9681" stroke="black" stroke-width="1.51188" stroke-miterlimit="10" stroke-linecap="round" stroke-linejoin="round"/>
<path d="M100.729 44.676C100.767 44.7327 100.823 44.7894 100.861 44.865" stroke="black" stroke-width="1.51188" stroke-miterlimit="10" stroke-linecap="round" stroke-linejoin="round"/>
<path d="M99.7462 43.5232C99.8974 43.6933 100.049 43.8445 100.2 44.0146C100.256 44.0902 100.313 44.1469 100.37 44.2225" stroke="black" stroke-width="1.51188" stroke-miterlimit="10" stroke-linecap="round" stroke-linejoin="round"/>
<path d="M96.1933 31.9951C96.1744 32.1463 96.1555 32.3164 96.1366 32.4676" stroke="black" stroke-width="1.51188" stroke-miterlimit="10" stroke-linecap="round" stroke-linejoin="round"/>
<path d="M96.25 31.277C96.2311 31.5038 96.2122 31.7494 96.1933 31.9762" stroke="black" stroke-width="1.51188" stroke-miterlimit="10" stroke-linecap="round" stroke-linejoin="round"/>
<path d="M86.0448 17.7079C86.1204 17.7268 86.196 17.7457 86.2716 17.7646" stroke="black" stroke-width="1.51188" stroke-miterlimit="10" stroke-linecap="round" stroke-linejoin="round"/>
<path d="M85.3078 17.5378C85.5157 17.5756 85.7046 17.6134 85.8936 17.6512" stroke="black" stroke-width="1.51188" stroke-miterlimit="10" stroke-linecap="round" stroke-linejoin="round"/>
<path d="M74.838 9.03345C74.9325 9.14684 75.027 9.27913 75.1026 9.41142C75.1971 9.54371 75.2916 9.676 75.3861 9.82718C75.4806 9.95947 75.5562 10.1107 75.6506 10.243" stroke="black" stroke-width="1.51188" stroke-miterlimit="10" stroke-linecap="round" stroke-linejoin="round"/>
<path d="M59.3035 4.59235C59.3602 4.57345 59.4169 4.55455 59.4925 4.51675" stroke="black" stroke-width="1.51188" stroke-miterlimit="10" stroke-linecap="round" stroke-linejoin="round"/>
<path d="M58.3585 5.00808C58.453 4.97029 58.5475 4.91359 58.642 4.87579" stroke="black" stroke-width="1.51188" stroke-miterlimit="10" stroke-linecap="round" stroke-linejoin="round"/>
<path d="M46.7171 5.00812C50.3834 6.80348 54.6922 6.80348 58.3585 5.00812C58.453 4.97032 58.5475 4.91363 58.642 4.87583L59.3035 4.59235C59.3602 4.57346 59.4169 4.53566 59.4924 4.51676L60.1539 4.28998C60.1728 4.27108 60.2106 4.27108 60.2295 4.27108C55.6372 1.00164 49.4574 1.00164 44.865 4.27108C44.8839 4.27108 44.9217 4.28998 44.9406 4.28998C45.1674 4.36557 45.3753 4.44117 45.6021 4.51676C45.6588 4.53566 45.7155 4.55456 45.791 4.59235C46.0178 4.68685 46.2257 4.78134 46.4525 4.87583C46.5281 4.91363 46.6226 4.97032 46.7171 5.00812Z" stroke="black" stroke-width="1.51188" stroke-miterlimit="10" stroke-linecap="round" stroke-linejoin="round"/>
<path d="M19.7678 17.5378C23.7932 16.8386 27.2705 14.3062 29.1793 10.6966L29.425 10.243C29.5194 10.0918 29.595 9.95951 29.6895 9.82722C29.784 9.67603 29.8785 9.54374 29.973 9.41146C30.0675 9.27917 30.1431 9.14688 30.2376 9.03349C30.2376 9.01459 30.2565 9.01459 30.2565 9.01459C24.6247 9.07128 19.6166 12.6998 17.8402 18.0481C17.878 18.0292 17.9158 18.0292 17.9725 18.0103C18.2559 17.9158 18.5394 17.8402 18.8229 17.7646C18.8985 17.7457 18.9741 17.7268 19.0497 17.7079C19.1064 17.689 19.1442 17.689 19.2009 17.6701C19.371 17.6134 19.5599 17.5756 19.7678 17.5378Z" stroke="black" stroke-width="1.51188" stroke-miterlimit="10" stroke-linecap="round" stroke-linejoin="round"/>
<path d="M5.32935 43.5232C8.16413 40.594 9.50592 36.493 8.92007 32.4487C8.90117 32.2975 8.88227 32.1275 8.86337 31.9763C8.84447 31.7495 8.82557 31.5038 8.80667 31.277C8.78778 31.0502 8.78778 30.8046 8.78778 30.5778C8.78778 30.54 8.78778 30.5022 8.78778 30.4644C4.27104 33.8094 2.34339 39.7057 4.04425 45.0729C4.10095 44.9973 4.13875 44.9217 4.19544 44.865C4.23324 44.8083 4.28994 44.7516 4.32773 44.676C4.44112 44.5249 4.55451 44.3737 4.6868 44.2414C4.7435 44.1658 4.80019 44.1091 4.85689 44.0335C5.02698 43.8634 5.17816 43.6933 5.32935 43.5232Z" stroke="black" stroke-width="1.51188" stroke-miterlimit="10" stroke-linecap="round" stroke-linejoin="round"/>
<path d="M96.1366 32.4487C95.5697 36.493 96.8926 40.5751 99.7273 43.5232C99.8785 43.6933 100.03 43.8445 100.181 44.0146C100.238 44.0902 100.294 44.1469 100.351 44.2225L100.71 44.6571C100.748 44.7138 100.805 44.7894 100.842 44.8461L100.994 45.054C102.676 39.6868 100.767 33.8094 96.25 30.4455C96.25 30.71 96.25 30.9935 96.2311 31.2581C96.2122 31.4849 96.1933 31.7306 96.1744 31.9573C96.1744 32.1463 96.1555 32.2975 96.1366 32.4487Z" stroke="black" stroke-width="1.51188" stroke-miterlimit="10" stroke-linecap="round" stroke-linejoin="round"/>
<path d="M75.6318 10.2619C75.7074 10.4131 75.8019 10.5643 75.8775 10.7155C77.7862 14.3251 81.2635 16.8575 85.2889 17.5567C85.4968 17.5945 85.6858 17.6323 85.8748 17.6701C85.9314 17.689 85.9693 17.689 86.0259 17.7079C86.1015 17.7268 86.1771 17.7457 86.2527 17.7646L87.1032 18.0103C87.141 18.0292 87.1977 18.0292 87.2354 18.0481C85.4401 12.7187 80.432 9.07128 74.8191 9.01459C74.8191 9.03349 74.838 9.03349 74.838 9.03349C74.9325 9.14688 75.027 9.27917 75.1026 9.41146C75.1971 9.54374 75.2916 9.67603 75.3861 9.82722C75.4617 9.97841 75.5562 10.1107 75.6318 10.2619Z" stroke="black" stroke-width="1.51188" stroke-miterlimit="10" stroke-linecap="round" stroke-linejoin="round"/>
<path d="M85.3078 87.9536C81.2824 88.6528 77.8051 91.1852 75.8963 94.7948L75.6506 95.2484C75.5751 95.3807 75.4806 95.513 75.405 95.6642L75.3483 95.7587C75.2727 95.872 75.1971 95.9854 75.1215 96.0988L75.1026 96.1366C75.027 96.25 74.9325 96.3823 74.8569 96.4957C74.8569 96.4957 74.8569 96.5146 74.838 96.5146C80.4698 96.4579 85.4779 92.8294 87.2543 87.4811C86.933 87.5945 86.6118 87.689 86.2716 87.7646C86.196 87.7835 86.1204 87.8024 86.0448 87.8213C85.9881 87.8402 85.9503 87.8402 85.8936 87.8591C85.7046 87.878 85.5157 87.9158 85.3078 87.9536Z" stroke="black" stroke-width="1.51188" stroke-miterlimit="10" stroke-linecap="round" stroke-linejoin="round"/>
<path d="M4.06319 60.4185C2.38123 65.7857 4.28997 71.682 8.80671 75.027C8.80671 74.7624 8.80671 74.479 8.82561 74.2144C8.84451 73.9876 8.86341 73.7419 8.88231 73.5151C8.9012 73.3639 8.9201 73.1939 8.939 73.0427C9.50596 68.9984 8.18306 64.9163 5.34829 61.9682C5.1971 61.817 5.06481 61.6658 4.93252 61.5146L4.81913 61.3634C4.72464 61.25 4.63015 61.1366 4.53565 61.0043C4.47896 60.9476 4.44116 60.872 4.38446 60.8154C4.32777 60.7398 4.28997 60.6831 4.23328 60.6264C4.15768 60.5508 4.10099 60.4941 4.06319 60.4185Z" stroke="black" stroke-width="1.51188" stroke-miterlimit="10" stroke-linecap="round" stroke-linejoin="round"/>
<path d="M58.3585 100.483C54.6922 98.6879 50.3834 98.6879 46.7171 100.483C46.6226 100.521 46.5281 100.578 46.4147 100.616L45.7532 100.899C45.6965 100.918 45.6399 100.937 45.5643 100.975L45.2997 101.069C45.243 101.088 45.1863 101.107 45.1296 101.126L45.0351 101.164C44.9784 101.183 44.9028 101.201 44.8461 101.22C49.4384 104.49 55.6183 104.49 60.2106 101.22C60.1539 101.201 60.0783 101.183 60.0216 101.164C59.9838 101.145 59.9649 101.145 59.9271 101.126C59.8704 101.107 59.8137 101.088 59.757 101.069C59.6625 101.031 59.5869 101.012 59.4924 100.975C59.4357 100.956 59.3791 100.937 59.3035 100.899C59.0767 100.805 58.8688 100.71 58.642 100.616C58.5475 100.578 58.453 100.521 58.3585 100.483Z" stroke="black" stroke-width="1.51188" stroke-miterlimit="10" stroke-linecap="round" stroke-linejoin="round"/>
<path d="M101.012 60.4185C100.956 60.4941 100.918 60.5508 100.861 60.6264C100.805 60.6831 100.767 60.7587 100.71 60.8154C100.653 60.872 100.616 60.9476 100.559 61.0043C100.464 61.1177 100.37 61.2311 100.275 61.3634C100.238 61.4012 100.2 61.4579 100.162 61.5146C100.03 61.6658 99.8785 61.817 99.7462 61.9682C96.9115 64.8974 95.5697 68.9984 96.1555 73.0427C96.1744 73.1939 96.1933 73.3639 96.2122 73.5151C96.2311 73.7419 96.25 73.9876 96.2689 74.2144C96.2878 74.4412 96.2878 74.6868 96.2878 74.9136C96.2878 74.9514 96.2878 74.9892 96.2878 75.027C100.786 71.682 102.713 65.7857 101.012 60.4185Z" stroke="black" stroke-width="1.51188" stroke-miterlimit="10" stroke-linecap="round" stroke-linejoin="round"/>
<path d="M29.4439 95.2295C29.3494 95.0783 29.2738 94.9271 29.1982 94.7759C27.2894 91.1663 23.8121 88.6339 19.7867 87.9347C19.5788 87.8969 19.3899 87.8591 19.2009 87.8213C19.1442 87.8024 19.1064 87.8024 19.0497 87.7835C18.9741 87.7646 18.8985 87.7457 18.8229 87.7268C17.878 87.4433 17.8591 87.4433 17.8402 87.4433C19.6355 92.7727 24.6436 96.4201 30.2565 96.4768C30.2565 96.4768 30.2565 96.4579 30.2376 96.4579C30.1431 96.3445 30.0675 96.2311 29.9919 96.0988C29.9919 96.0799 29.973 96.0799 29.973 96.061C29.8974 95.9476 29.8218 95.8342 29.7462 95.7208C29.7273 95.683 29.7084 95.6641 29.6895 95.6263C29.595 95.513 29.5194 95.3807 29.4439 95.2295Z" stroke="black" stroke-width="1.51188" stroke-miterlimit="10" stroke-linecap="round" stroke-linejoin="round"/>
<path d="M94.5113 48.0967C94.6814 49.6275 94.757 51.1771 94.757 52.7457C94.757 55.675 94.4546 58.5286 93.8877 61.2878C91.9789 70.567 87.0275 78.75 80.1107 84.722C76.7846 87.5945 73.0049 89.9568 68.885 91.6766C63.858 93.7932 58.3396 94.9649 52.5378 94.9649C48.0778 94.9649 43.7878 94.2657 39.7624 92.9995C36.6442 92.0168 33.696 90.675 30.9368 89.0308C26.3067 86.2716 22.2624 82.6431 18.993 78.391C17.8591 76.9169 16.8386 75.3672 15.9125 73.7608C14.1739 70.7371 12.7943 67.4676 11.8494 64.0281C11.0367 61.1177 10.5454 58.0751 10.3753 54.9379C10.3375 54.2198 10.3186 53.4828 10.3186 52.7457C10.3186 51.1582 10.4131 49.5708 10.5832 48.04C11.4147 40.594 14.1739 33.7338 18.3504 27.9698C22.4325 22.3569 27.8564 17.7835 34.1685 14.722C35.7559 13.966 37.3812 13.2857 39.0632 12.7187C43.2964 11.3013 47.8132 10.5265 52.5189 10.5265C66.3526 10.5265 78.6366 17.1788 86.3472 27.4784C90.7505 33.3559 93.6609 40.4239 94.5113 48.0967Z" stroke="black" stroke-width="1.51188" stroke-miterlimit="10" stroke-linecap="round" stroke-linejoin="round"/>
<path d="M90.3348 44.9217C91.4309 49.7408 91.4309 54.8434 90.5238 59.5491" stroke="black" stroke-width="1.51188" stroke-miterlimit="10" stroke-linecap="round" stroke-linejoin="round"/>
<path d="M88.3693 38.3073C88.6528 39.0065 88.8985 39.7246 89.1253 40.4428" stroke="black" stroke-width="1.51188" stroke-miterlimit="10" stroke-linecap="round" stroke-linejoin="round"/>
<path d="M80.6021 26.1366C83.1156 28.7824 85.1188 31.7872 86.8197 35.0189" stroke="black" stroke-width="1.51188" stroke-miterlimit="10" stroke-linecap="round" stroke-linejoin="round"/>
<path d="M61.5902 15.0621C66.0691 16.1771 70.2268 18.2371 74.1199 20.675" stroke="black" stroke-width="1.51188" stroke-miterlimit="10" stroke-linecap="round" stroke-linejoin="round"/>
<path d="M35.2646 18.0292C41.8979 14.5896 49.4573 13.4557 56.9033 14.2117" stroke="black" stroke-width="1.51188" stroke-miterlimit="10" stroke-linecap="round" stroke-linejoin="round"/>
<path d="M28.3288 22.3569C29.236 21.6576 30.1809 20.9962 31.1636 20.3914" stroke="black" stroke-width="1.51188" stroke-miterlimit="10" stroke-linecap="round" stroke-linejoin="round"/>
<path d="M14.1739 47.7376C15.0621 40.7451 17.6134 34.1496 22.0167 28.6123C22.9239 27.4595 23.9066 26.3634 24.946 25.3429" stroke="black" stroke-width="1.51188" stroke-miterlimit="10" stroke-linecap="round" stroke-linejoin="round"/>
<path d="M15.0999 62.1004C14.1361 58.9822 13.777 55.7316 13.8148 52.4811" stroke="black" stroke-width="1.51188" stroke-miterlimit="10" stroke-linecap="round" stroke-linejoin="round"/>
<path d="M40.9908 89.5599C38.4206 88.7473 35.926 87.6701 33.5826 86.3472" stroke="black" stroke-width="1.51188" stroke-miterlimit="10" stroke-linecap="round" stroke-linejoin="round"/>
<path d="M50.6102 91.2797C48.8715 91.2041 47.1328 90.9962 45.4131 90.6561" stroke="black" stroke-width="1.51188" stroke-miterlimit="10" stroke-linecap="round" stroke-linejoin="round"/>
<path d="M76.4444 83.0399C70.2457 88.0102 62.4973 90.7694 54.6544 91.2608" stroke="black" stroke-width="1.51188" stroke-miterlimit="10" stroke-linecap="round" stroke-linejoin="round"/>
<path d="M39.0821 12.7187L37.3623 7.65387" stroke="black" stroke-width="1.51188" stroke-miterlimit="10" stroke-linecap="round" stroke-linejoin="round"/>
<path d="M34.1874 14.7219L32.6188 11.4903" stroke="black" stroke-width="1.51188" stroke-miterlimit="10" stroke-linecap="round" stroke-linejoin="round"/>
<path d="M61.6658 11.358L62.6296 6.95465" stroke="black" stroke-width="1.51188" stroke-miterlimit="10" stroke-linecap="round" stroke-linejoin="round"/>
<path d="M68.4881 13.5313L70.1512 9.44925" stroke="black" stroke-width="1.51188" stroke-miterlimit="10" stroke-linecap="round" stroke-linejoin="round"/>
<path d="M86.3661 27.4784L90.7505 24.1901" stroke="black" stroke-width="1.51188" stroke-miterlimit="10" stroke-linecap="round" stroke-linejoin="round"/>
<path d="M94.5113 48.0967L98.1398 47.6809" stroke="black" stroke-width="1.51188" stroke-miterlimit="10" stroke-linecap="round" stroke-linejoin="round"/>
<path d="M94.757 53.7473L97.2138 53.804" stroke="black" stroke-width="1.51188" stroke-miterlimit="10" stroke-linecap="round" stroke-linejoin="round"/>
<path d="M86.763 77.4649L91.1285 80.6021" stroke="black" stroke-width="1.51188" stroke-miterlimit="10" stroke-linecap="round" stroke-linejoin="round"/>
<path d="M62.3272 94.02L63.1398 97.4217" stroke="black" stroke-width="1.51188" stroke-miterlimit="10" stroke-linecap="round" stroke-linejoin="round"/>
<path d="M68.885 91.6766L70.7181 96.0043" stroke="black" stroke-width="1.51188" stroke-miterlimit="10" stroke-linecap="round" stroke-linejoin="round"/>
<path d="M39.7624 92.9995L38.1371 98.0831" stroke="black" stroke-width="1.51188" stroke-miterlimit="10" stroke-linecap="round" stroke-linejoin="round"/>
<path d="M15.9125 73.7419L13.399 75.1971" stroke="black" stroke-width="1.51188" stroke-miterlimit="10" stroke-linecap="round" stroke-linejoin="round"/>
<path d="M18.993 78.3909L14.9487 81.4525" stroke="black" stroke-width="1.51188" stroke-miterlimit="10" stroke-linecap="round" stroke-linejoin="round"/>
<path d="M10.3753 54.919L5.57507 55.1647" stroke="black" stroke-width="1.51188" stroke-miterlimit="10" stroke-linecap="round" stroke-linejoin="round"/>
<path d="M10.5831 48.0211L8.01294 47.7376" stroke="black" stroke-width="1.51188" stroke-miterlimit="10" stroke-linecap="round" stroke-linejoin="round"/>
<path d="M18.3504 27.9698L13.966 24.757" stroke="black" stroke-width="1.51188" stroke-miterlimit="10" stroke-linecap="round" stroke-linejoin="round"/>
<path d="M52.5378 70.1701V76.2176" stroke="black" stroke-width="1.51188" stroke-miterlimit="10" stroke-linecap="round" stroke-linejoin="round"/>
<path d="M52.5378 19.0497V24.757" stroke="black" stroke-width="1.51188" stroke-miterlimit="10" stroke-linecap="round" stroke-linejoin="round"/>
<path d="M76.3688 28.9147L73.0049 32.2786" stroke="black" stroke-width="1.51188" stroke-miterlimit="10" stroke-linecap="round" stroke-linejoin="round"/>
<path d="M34.2251 34.433L28.7068 28.9147" stroke="black" stroke-width="1.51188" stroke-miterlimit="10" stroke-linecap="round" stroke-linejoin="round"/>
<path d="M64.0659 24.8893L63.1399 27.1571" stroke="black" stroke-width="1.51188" stroke-miterlimit="10" stroke-linecap="round" stroke-linejoin="round"/>
<path d="M30.54 43.6366L24.6814 41.2176" stroke="black" stroke-width="1.51188" stroke-miterlimit="10" stroke-linecap="round" stroke-linejoin="round"/>
<path d="M80.3753 41.2176L76.6145 42.7673" stroke="black" stroke-width="1.51188" stroke-miterlimit="10" stroke-linecap="round" stroke-linejoin="round"/>
<path d="M42.4271 28.3477L41.0097 24.8893" stroke="black" stroke-width="1.51188" stroke-miterlimit="10" stroke-linecap="round" stroke-linejoin="round"/>
<path d="M63.1399 78.3531L60.4563 71.8521" stroke="black" stroke-width="1.51188" stroke-miterlimit="10" stroke-linecap="round" stroke-linejoin="round"/>
<path d="M46.7549 75.5562L45.1485 81.906" stroke="black" stroke-width="1.51188" stroke-miterlimit="10" stroke-linecap="round" stroke-linejoin="round"/>
<path d="M57.2246 80.1485L57.6971 82.9833" stroke="black" stroke-width="1.51188" stroke-miterlimit="10" stroke-linecap="round" stroke-linejoin="round"/>
<path d="M11.5092 63.4612L17.5 59.8516L20.5049 58.0562L21.9978 57.168L22.7538 56.7144C22.8861 56.6388 22.9806 56.5821 23.1884 56.4687C23.3774 56.3742 23.5853 56.3175 23.7932 56.2797C24.209 56.223 24.6625 56.2608 25.0405 56.4309C25.2295 56.5065 25.4185 56.6199 25.5886 56.7522C25.683 56.8089 25.7586 56.8845 25.8342 56.9601C25.872 56.9979 25.9098 57.0357 25.9476 57.0735L26.0043 57.1302L26.0421 57.168L27.1004 58.5476L29.2171 61.3256L33.4692 66.8818L37.7025 72.4379L39.8191 75.216L40.8963 76.6334C41.142 76.9736 41.2932 77.3893 41.3121 77.824C41.331 78.2398 41.2365 78.6744 41.0475 79.0524C40.953 79.2414 40.8207 79.4115 40.6695 79.5627L40.3672 79.8839L39.7624 80.5265L38.5718 81.7927L36.1717 84.3251L31.3526 89.371C31.1258 89.5978 30.7667 89.6167 30.54 89.3899C30.3132 89.182 30.2943 88.8229 30.5022 88.5773L35.2079 83.3991L37.5702 80.8289L38.7608 79.5438L39.3467 78.9012L39.649 78.5799C39.7057 78.5044 39.7624 78.4477 39.8002 78.3721C39.9514 78.0886 39.9136 77.7295 39.7246 77.4838L38.6663 76.1231L36.5308 73.3451L32.2786 67.8078L28.0454 62.2517L25.9287 59.4736L24.8704 58.0751L24.8326 58.0373L24.8137 58.0184L24.7759 57.9806C24.757 57.9617 24.7192 57.9239 24.7003 57.905C24.6436 57.8483 24.568 57.8105 24.5113 57.7916C24.379 57.7349 24.209 57.716 24.0578 57.7349C23.9822 57.7538 23.9066 57.7727 23.831 57.7916C23.7932 57.8105 23.642 57.905 23.5097 57.9806L22.7538 58.4153L21.2419 59.3035L18.2181 61.0611L12.1706 64.5573C11.8683 64.7274 11.4714 64.6329 11.3013 64.3305C11.1123 64.0281 11.2257 63.6501 11.5092 63.4612Z" fill="black"/>
<path d="M32.5621 55.0702C33.0157 54.7678 33.6204 54.8623 33.9606 55.297L34.2063 55.5994L36.4363 58.453L39.5356 62.3839L42.5027 66.1636L44.865 69.1874L44.8839 69.2063C45.2052 69.6031 45.1674 70.189 44.8272 70.5481L39.3278 75.8396" stroke="black" stroke-width="1.51188" stroke-miterlimit="10" stroke-linecap="round" stroke-linejoin="round"/>
<path d="M32.5621 55.0702L26.5146 59.0578" stroke="black" stroke-width="1.51188" stroke-miterlimit="10" stroke-linecap="round" stroke-linejoin="round"/>
<path d="M44.3359 68.6582L48.1156 64.7085C48.1911 64.6329 48.2667 64.5762 48.3423 64.5384L51.7063 63.0265C51.7252 63.0265 51.7441 63.0076 51.763 63.0076C51.9141 62.9509 52.0464 62.9131 52.1976 62.8753C52.3488 62.8375 52.5 62.8186 52.6134 62.7997L53.3504 62.6674L54.8434 62.4028L57.8294 61.8737L59.3224 61.6091L59.7003 61.5524C59.8137 61.5335 59.9271 61.5146 60.0216 61.4768C60.2484 61.4201 60.4563 61.3634 60.6641 61.2878C61.0799 61.1366 61.4957 60.9288 61.8736 60.702L63.1209 59.8704L65.6344 58.1885L66.9006 57.3569L67.5243 56.9412C67.7133 56.8089 67.8834 56.6766 68.0535 56.5254C68.3936 56.223 68.696 55.9018 68.9606 55.5427L69.8488 54.3143L71.6064 51.8575L71.5308 51.9709C71.6631 51.6874 71.7576 51.3661 71.7954 51.0449C71.8332 50.7047 71.8521 50.3645 71.8143 50.0054C71.7576 49.3062 71.5497 48.6069 71.2284 47.9833L72.4568 48.1345C71.7387 48.9093 70.9638 49.6653 70.1323 50.3456C69.3008 51.026 68.3936 51.6307 67.4109 52.1221C67.0896 52.2922 66.6928 52.1599 66.5227 51.8197C66.3715 51.4984 66.4849 51.1205 66.8062 50.9504C68.5259 50.0243 70.0189 48.6447 71.3418 47.1329C71.6064 46.8305 72.0788 46.7927 72.4001 47.0573C72.4757 47.114 72.5324 47.2085 72.5702 47.2841C72.986 48.0967 73.2505 48.966 73.345 49.8731C73.3828 50.3267 73.3828 50.7803 73.3072 51.2527C73.2505 51.7063 73.1182 52.1788 72.9104 52.6323C72.8915 52.6701 72.8726 52.7079 72.8348 52.7457L71.0772 55.2025L70.189 56.4309C69.8677 56.8845 69.4708 57.3003 69.0551 57.6782C68.8472 57.8672 68.6204 58.0373 68.3936 58.1885L67.7511 58.6232L66.4849 59.4547L63.9714 61.1366L62.7052 61.9871C62.2327 62.2895 61.7225 62.5351 61.1933 62.743C60.9287 62.8375 60.6641 62.9131 60.3807 62.9887C60.2484 63.0265 60.0972 63.0454 59.9649 63.0832L59.5869 63.1588L58.094 63.4234L55.108 63.9525L53.615 64.2171L52.878 64.3494C52.7457 64.3683 52.6512 64.3872 52.5567 64.4061C52.4622 64.425 52.3677 64.4628 52.2732 64.5006L52.3299 64.4817L48.966 65.9936L49.1928 65.8235L45.4131 69.7733C45.1296 70.0756 44.6382 70.0945 44.3359 69.7922C44.0524 69.4331 44.0524 68.9417 44.3359 68.6582Z" fill="black"/>
<path d="M66.0691 44.5248C66.3904 45.4698 66.4849 46.4336 66.5038 46.9627" stroke="black" stroke-width="1.51188" stroke-miterlimit="10" stroke-linecap="round" stroke-linejoin="round"/>
<path d="M64.3304 38.3073C64.7273 39.1766 65.0108 40.027 65.1242 40.8963" stroke="black" stroke-width="1.51188" stroke-miterlimit="10" stroke-linecap="round" stroke-linejoin="round"/>
<path d="M66.7495 50.2511C66.8629 51.1015 66.9196 51.952 66.844 52.7457" stroke="black" stroke-width="1.51188" stroke-miterlimit="10" stroke-linecap="round" stroke-linejoin="round"/>
<path d="M71.1906 47.3785C71.4552 46.5092 71.5686 45.6398 71.4741 44.7894C71.3796 43.939 71.0772 43.1263 70.6047 42.3704L71.7953 42.4838C71.0583 43.2397 70.2646 43.9579 69.3952 44.5815C68.5259 45.2052 67.5999 45.7721 66.5794 46.169C66.277 46.2824 65.9368 46.1501 65.8234 45.8477C65.71 45.5642 65.8423 45.2241 66.1258 45.0918C66.9951 44.6949 67.8267 44.1468 68.5826 43.5232C69.3385 42.8995 70.0378 42.2003 70.6992 41.4633C70.9827 41.1609 71.4741 41.142 71.7764 41.4444C71.8142 41.4822 71.8709 41.5389 71.8898 41.5955C72.4568 42.5027 72.8537 43.561 72.986 44.6571C73.1182 45.7532 72.9671 46.8493 72.6458 47.8509C72.5324 48.2478 72.0977 48.4746 71.7009 48.3612C71.2851 48.21 71.0583 47.7754 71.1906 47.3785Z" fill="black"/>
<path d="M70.4914 41.8035C70.4914 41.7846 70.5103 41.709 70.5103 41.6523L70.5292 41.4822C70.5481 41.3688 70.5481 41.2554 70.567 41.1231C70.5859 40.8963 70.5859 40.6507 70.567 40.405C70.5481 39.9325 70.4725 39.4601 70.3402 39.0254C70.2079 38.5907 70.0189 38.175 69.7543 37.8159C69.5087 37.4379 69.1874 37.1355 68.8283 36.8521L69.7921 36.7954C68.4503 38.0049 66.9952 39.1577 65.351 40.0648C65.0108 40.2538 64.595 40.1215 64.4061 39.7813C64.2171 39.4412 64.3494 39.0443 64.6706 38.8553C66.1447 38.0049 67.4865 36.8899 68.7527 35.6993C69.0173 35.4347 69.4331 35.4347 69.7165 35.6615C70.189 36.0205 70.6237 36.4741 70.9827 36.9843C71.3229 37.4946 71.5875 38.0427 71.7576 38.6096C71.9277 39.1766 72.0222 39.7624 72.0599 40.3483C72.0788 40.6318 72.0788 40.9341 72.0599 41.2176C72.0599 41.3688 72.0411 41.5011 72.0222 41.6523C72.0222 41.7279 72.0033 41.8035 71.9844 41.8791C71.9655 41.9547 71.9655 42.0113 71.9466 42.1247C71.8521 42.5405 71.4552 42.7862 71.0583 42.7106C70.6615 42.635 70.3969 42.2192 70.4914 41.8035Z" fill="black"/>
<path d="M69.3008 36.2662C69.3008 36.2662 69.074 31.3904 64.236 32.2786L63.7635 32.5054L52.1031 38.2505L50.1944 39.1954" stroke="black" stroke-width="1.51188" stroke-miterlimit="10" stroke-linecap="round" stroke-linejoin="round"/>
<path d="M63.7635 32.5054L56.1474 29.973C54.2576 29.3493 52.1976 29.7273 50.6479 30.9746L46.7171 34.1685L45.9989 34.7543C45.3564 35.2835 45.3564 36.2473 45.98 36.7765C47.3218 37.9293 49.703 39.4222 52.0653 38.2505C53.5961 37.4946 54.4654 35.1323 54.4654 35.1323" stroke="black" stroke-width="1.51188" stroke-miterlimit="10" stroke-linecap="round" stroke-linejoin="round"/>
<path d="M72.5135 51.3283L77.7295 55.7506" stroke="black" stroke-width="1.51188" stroke-miterlimit="10" stroke-linecap="round" stroke-linejoin="round"/>
<path d="M56.8278 62.7997L66.4849 68.7527" stroke="black" stroke-width="1.51188" stroke-miterlimit="10" stroke-linecap="round" stroke-linejoin="round"/>
<path d="M79.8839 84.8731C75.6695 82.1139 73.0427 79.1279 71.9654 76.7278C71.7576 76.2743 71.8332 75.7451 72.1355 75.3483L75.4995 71.115L78.75 67.0329L82.1328 62.7808L85.3078 58.7743C85.5535 58.4908 85.9314 58.3396 86.2905 58.4152C88.9174 58.9255 91.4309 60.4184 93.7743 61.7413" stroke="black" stroke-width="1.51188" stroke-miterlimit="10" stroke-linecap="round" stroke-linejoin="round"/>
<path d="M72.1544 75.3672L71.9655 75.1971C69.811 74.2144 64.9163 70.4536 66.5794 68.7905L69.0551 65.9557L72.3623 62.1571L75.6507 58.264L77.7862 55.8072L78.0508 55.5049C79.4871 54.0308 83.7959 57.716 85.3267 58.8121" stroke="black" stroke-width="1.51188" stroke-miterlimit="10" stroke-linecap="round" stroke-linejoin="round"/>
<path d="M46.3202 60.513L49.2873 64.8029C49.5329 65.1431 49.4384 65.6155 49.0983 65.8612C48.7581 66.1069 48.2856 66.0124 48.04 65.6722L48.0211 65.6533L45.243 61.2311C45.054 60.9287 45.1485 60.5319 45.4509 60.3429C45.7532 60.135 46.1312 60.2295 46.3202 60.513Z" fill="black"/>
<path d="M50.1944 39.1955C50.8369 40.8207 50.2133 41.7468 49.4196 42.2759C48.9282 42.6161 48.3423 42.7673 47.7565 42.7484C47.3974 42.7295 47.0194 42.6539 46.6793 42.5027C45.0729 41.8224 42.0491 40.4617 41.0097 39.7435C40.3105 39.2522 39.8002 38.7986 39.5923 38.1182C39.3656 37.3812 39.5167 36.3985 40.1782 34.8299C41.4633 31.8251 46.736 34.1874 46.736 34.1874" stroke="black" stroke-width="1.51188" stroke-miterlimit="10" stroke-linecap="round" stroke-linejoin="round"/>
<path d="M39.479 38.1372C39.479 38.1372 38.2506 37.7214 37.3812 38.6852C36.7198 39.4034 36.2284 41.0664 36.3229 41.9547C36.3985 42.6161 36.6253 43.0886 36.9655 43.4665C37.3056 43.8634 37.7592 44.1469 38.2128 44.4304C39.6112 45.3186 43.6933 46.9628 44.8839 47.2084C44.9595 47.2273 45.0162 47.2273 45.0729 47.2273C45.9611 47.284 47.3974 47.1328 47.7565 45.3942C48.0967 43.7122 47.7754 42.7862 47.7565 42.7295" stroke="black" stroke-width="1.51188" stroke-miterlimit="10" stroke-linecap="round" stroke-linejoin="round"/>
<path d="M36.9276 43.4854C36.9276 43.4854 34.4708 45.2808 35.9449 47.3029C36.0583 47.473 36.2095 47.6431 36.3796 47.7943C38.3072 49.6085 40.6695 50.3456 42.0869 50.3834C42.4082 50.3834 42.6728 50.3645 42.8807 50.3078C44.1658 49.9487 44.6193 48.3234 44.8839 47.1895" stroke="black" stroke-width="1.51188" stroke-miterlimit="10" stroke-linecap="round" stroke-linejoin="round"/>
<path d="M35.6426 47.4163C35.1134 47.8888 34.5275 48.7203 34.6787 50.0054C34.8299 51.3661 36.1906 52.4811 37.5702 53.0292C38.4206 53.3693 39.2711 53.5205 39.8569 53.3882C41.2176 53.0859 42.1058 52.2165 42.4271 50.5535" stroke="black" stroke-width="1.51188" stroke-miterlimit="10" stroke-linecap="round" stroke-linejoin="round"/>
<path d="M34.2063 55.5805L37.8348 53.1425" stroke="black" stroke-width="1.51188" stroke-miterlimit="10" stroke-linecap="round" stroke-linejoin="round"/>
<path d="M59.7381 41.52L53.9741 45.0729" stroke="black" stroke-width="1.51188" stroke-miterlimit="10" stroke-linecap="round" stroke-linejoin="round"/>
<path d="M62.4028 47.6053L56.1096 50.4023" stroke="black" stroke-width="1.51188" stroke-miterlimit="10" stroke-linecap="round" stroke-linejoin="round"/>
<path d="M62.4028 53.8229L57.2057 55.3348" stroke="black" stroke-width="1.51188" stroke-miterlimit="10" stroke-linecap="round" stroke-linejoin="round"/>
<path d="M30.2565 83.7581L33.4314 80.6588" stroke="black" stroke-width="1.51188" stroke-miterlimit="10" stroke-linecap="round" stroke-linejoin="round"/>
<path d="M76.9357 64.9352L78.8445 66.3526" stroke="black" stroke-width="1.51188" stroke-miterlimit="10" stroke-linecap="round" stroke-linejoin="round"/>
<path d="M78.6177 60.7964L81.4336 62.7241" stroke="black" stroke-width="1.51188" stroke-miterlimit="10" stroke-linecap="round" stroke-linejoin="round"/>
</g>
<defs>
<clipPath id="clip0_10_243">
<rect width="104.32" height="105" fill="white"/>
</clipPath>
</defs>
</svg>
