<svg xmlns="http://www.w3.org/2000/svg" fill="none" viewBox="0 0 30 30" height="30" width="30">
<path fill="#121212" d="M9.10041 7.77458C8.7343 7.40847 8.1407 7.40847 7.77459 7.77458C7.40847 8.1407 7.40847 8.73428 7.77459 9.1004L13.6742 15L7.77459 20.8996C7.40847 21.2657 7.40847 21.8593 7.77459 22.2254C8.1407 22.5915 8.7343 22.5915 9.10041 22.2254L15.0001 16.3258L20.8996 22.2253C21.2657 22.5914 21.8593 22.5914 22.2254 22.2253C22.5915 21.8592 22.5915 21.2656 22.2254 20.8995L16.3259 15L22.2254 9.10054C22.5915 8.73443 22.5915 8.14084 22.2254 7.77473C21.8593 7.40861 21.2657 7.40861 20.8996 7.77473L15.0001 13.6742L9.10041 7.77458Z"></path>
</svg>
